<?xml version="1.0" encoding="UTF-8" ?>
<!DOCTYPE svg PUBLIC "-//W3C//DTD SVG 1.1//EN" "http://www.w3.org/Graphics/SVG/1.1/DTD/svg11.dtd">
<svg width="24pt" height="24pt" viewBox="0 0 180 180" version="1.1" xmlns="http://www.w3.org/2000/svg">
<path fill="#58a3da" d=" M 85.91 0.00 L 96.13 0.00 C 116.86 1.84 137.15 10.31 152.12 24.93 C 168.88 40.66 178.85 63.08 180.00 85.98 L 180.00 96.13 C 178.17 116.86 169.69 137.15 155.07 152.12 C 139.61 168.63 117.67 178.44 95.18 180.00 L 85.57 180.00 C 65.85 178.84 46.50 171.34 31.52 158.41 C 12.98 142.75 1.62 119.37 0.00 95.22 L 0.00 85.58 C 1.31 61.38 12.57 37.86 31.00 22.04 C 46.14 8.77 65.85 1.07 85.91 0.00 Z" />
<path fill="#ffffff" d=" M 61.82 40.31 C 63.91 37.32 66.44 34.33 70.11 33.34 C 77.44 30.85 85.97 35.82 87.86 43.22 C 88.76 47.20 88.31 51.31 88.37 55.35 C 89.14 55.35 90.69 55.35 91.46 55.35 C 91.62 50.03 90.53 44.21 93.48 39.42 C 96.78 33.55 104.76 31.05 110.86 33.89 C 114.01 35.08 116.17 37.74 118.18 40.30 C 124.05 40.18 130.04 42.68 133.30 47.71 C 135.70 50.86 136.05 54.88 136.18 58.69 C 139.67 60.71 143.06 63.29 144.66 67.13 C 147.73 73.15 146.74 80.43 143.24 86.04 C 145.69 90.60 147.29 95.84 146.20 101.04 C 145.51 105.61 142.83 109.53 139.61 112.73 C 140.37 116.06 140.95 119.60 139.77 122.91 C 137.77 129.89 130.98 134.59 123.91 135.20 C 122.38 137.81 120.87 140.57 118.38 142.40 C 112.54 147.07 103.38 147.18 97.64 142.29 C 93.82 139.04 91.76 133.99 91.78 129.01 C 91.71 123.24 91.85 117.47 91.76 111.70 C 90.91 111.70 89.20 111.70 88.34 111.70 C 88.26 117.48 88.28 123.26 88.22 129.03 C 88.27 134.01 86.18 139.04 82.36 142.27 C 76.63 147.17 67.47 147.08 61.63 142.42 C 59.12 140.59 57.60 137.82 56.06 135.20 C 49.25 134.63 42.69 130.30 40.45 123.69 C 39.04 120.16 39.50 116.30 40.36 112.71 C 37.40 109.73 34.77 106.22 33.98 102.00 C 32.56 96.53 34.07 90.86 36.73 86.03 C 33.21 80.48 32.27 73.24 35.25 67.24 C 36.85 63.35 40.27 60.71 43.81 58.67 C 43.85 54.60 44.43 50.31 47.13 47.07 C 50.46 42.40 56.21 40.20 61.82 40.31 Z" />
<path fill="#58a3da" d=" M 71.27 40.40 C 75.69 38.04 81.41 42.10 81.34 46.93 C 81.54 52.17 81.30 57.41 81.40 62.65 C 87.10 62.63 92.80 62.65 98.50 62.64 C 98.57 57.13 98.32 51.62 98.56 46.12 C 98.65 41.37 104.57 38.02 108.63 40.64 C 112.01 42.27 112.54 46.27 113.41 49.50 C 116.16 48.61 119.05 47.10 121.99 48.00 C 125.28 48.81 128.32 51.50 128.67 54.99 C 129.26 58.58 126.86 61.57 125.31 64.55 C 128.88 64.90 132.99 64.56 135.91 67.05 C 139.78 70.43 140.67 76.68 137.89 81.00 C 136.59 82.89 134.77 84.33 133.11 85.89 C 134.77 87.56 136.60 89.12 137.86 91.14 C 140.58 95.78 139.89 102.22 136.07 106.06 C 134.20 107.77 131.75 108.64 129.51 109.75 C 130.93 112.01 132.66 114.22 133.10 116.93 C 133.77 121.37 130.79 125.97 126.59 127.41 C 123.73 127.98 120.81 127.45 117.94 127.24 C 117.40 130.25 117.15 133.60 114.89 135.90 C 111.46 139.83 104.46 140.00 101.18 135.81 C 98.81 133.16 98.70 129.40 98.75 126.04 C 98.85 121.23 98.44 116.38 99.27 111.61 C 103.86 111.68 108.45 111.84 113.03 111.67 C 116.61 111.89 119.47 108.37 119.37 104.96 C 119.51 95.33 119.44 85.69 119.40 76.06 C 119.77 71.98 116.20 68.22 112.08 68.63 C 97.37 68.62 82.67 68.62 67.96 68.63 C 64.29 68.28 60.67 71.24 60.65 75.01 C 60.43 84.66 60.62 94.33 60.56 104.00 C 60.29 107.17 62.10 110.72 65.35 111.51 C 70.33 112.11 75.37 111.36 80.37 111.80 C 80.58 112.01 80.98 112.43 81.19 112.64 C 81.46 117.40 81.21 122.18 81.30 126.95 C 81.39 130.26 80.85 133.87 78.38 136.29 C 74.94 139.98 68.43 139.65 65.12 135.95 C 62.82 133.65 62.56 130.27 62.02 127.24 C 59.16 127.46 56.25 127.99 53.40 127.41 C 49.13 126.03 46.20 121.35 46.87 116.90 C 47.41 114.36 49.00 112.23 50.01 109.88 C 46.97 107.75 42.87 106.51 41.56 102.62 C 38.62 96.53 41.76 89.64 46.87 85.89 C 44.69 83.81 42.00 81.89 41.06 78.88 C 39.41 74.15 41.28 68.12 45.91 65.84 C 48.70 64.72 51.79 64.79 54.75 64.52 C 53.32 61.83 51.09 59.22 51.26 55.98 C 51.07 50.98 56.36 47.16 61.07 47.81 C 62.97 48.15 64.77 48.88 66.59 49.51 C 67.58 46.28 67.81 42.04 71.27 40.40 Z" />
<path fill="#58a3da" d=" M 67.37 75.42 C 82.46 75.43 97.54 75.43 112.63 75.42 C 112.62 78.06 112.62 80.71 112.60 83.36 C 97.53 83.34 82.47 83.34 67.40 83.36 C 67.38 80.71 67.38 78.06 67.37 75.42 Z" />
<path fill="#58a3da" d=" M 67.44 95.26 C 67.41 93.41 67.38 91.56 67.36 89.72 C 82.45 89.73 97.55 89.73 112.65 89.72 C 112.62 91.57 112.59 93.41 112.55 95.26 C 97.52 95.24 82.48 95.24 67.44 95.26 Z" />
<path fill="#58a3da" d=" M 67.39 101.36 C 82.46 101.39 97.54 101.39 112.61 101.36 C 112.61 102.68 112.62 103.99 112.63 105.31 C 97.54 105.30 82.46 105.30 67.38 105.31 C 67.38 104.00 67.38 102.68 67.39 101.36 Z" />
</svg>
